HIERARCHY
ROOT Hips
{
  OFFSET 0.000000 0.000000 0.000000
  CHANNELS 6 Xposition Yposition Zposition Zrotation Yrotation Xrotation
  JOINT Spine1
  {
    OFFSET -0.013727 5.003763 -0.053727
    CHANNELS 3 Zrotation Yrotation Xrotation
    JOINT Spine2
    {
      OFFSET -0.000000 7.125301 -0.029825
      CHANNELS 3 Zrotation Yrotation Xrotation
      JOINT Chest
      {
        OFFSET -0.000001 7.550063 -0.815971
        CHANNELS 3 Zrotation Yrotation Xrotation
        JOINT Neck1
        {
          OFFSET -0.181677 26.311295 -0.553348
          CHANNELS 3 Zrotation Yrotation Xrotation
          JOINT Neck2
          {
            OFFSET -0.000003 7.709397 2.302585
            CHANNELS 3 Zrotation Yrotation Xrotation
            JOINT Head
            {
              OFFSET -0.000005 6.128916 1.953709
              CHANNELS 3 Zrotation Yrotation Xrotation
              JOINT HeadEnd
              {
                OFFSET 0.003598 16.065403 -1.835379
                CHANNELS 3 Zrotation Yrotation Xrotation
                End Site
                {
                  OFFSET 0.0 1.0 0.0
                }
              }
              JOINT Jaw
              {
                OFFSET 0.002637 0.475592 3.094941
                CHANNELS 3 Zrotation Yrotation Xrotation
                End Site
                {
                  OFFSET 0.0 1.0 0.0
                }
              }
              JOINT LeftEye
              {
                OFFSET 3.206381 5.380205 7.586883
                CHANNELS 3 Zrotation Yrotation Xrotation
                End Site
                {
                  OFFSET 0.0 1.0 0.0
                }
              }
              JOINT RightEye
              {
                OFFSET -3.222440 5.361869 7.558234
                CHANNELS 3 Zrotation Yrotation Xrotation
                End Site
                {
                  OFFSET 0.0 1.0 0.0
                }
              }
            }
          }
        }
        JOINT LeftShoulder
        {
          OFFSET 1.621652 23.237164 5.113413
          CHANNELS 3 Zrotation Yrotation Xrotation
          JOINT LeftArm
          {
            OFFSET 14.919846 0.000002 -5.502326
            CHANNELS 3 Zrotation Yrotation Xrotation
            JOINT LeftForeArm
            {
              OFFSET 28.739307 0.000000 -0.002588
              CHANNELS 3 Zrotation Yrotation Xrotation
              JOINT LeftHand
              {
                OFFSET 27.093981 -0.000001 0.002609
                CHANNELS 3 Zrotation Yrotation Xrotation
                JOINT LeftHandThumb1
                {
                  OFFSET 2.276482 -1.392045 3.191413
                  CHANNELS 3 Zrotation Yrotation Xrotation
                  JOINT LeftHandThumb2
                  {
                    OFFSET 4.012836 -1.828127 1.641654
                    CHANNELS 3 Zrotation Yrotation Xrotation
                    JOINT LeftHandThumb3
                    {
                      OFFSET 2.798515 0.000000 -0.000003
                      CHANNELS 3 Zrotation Yrotation Xrotation
                      JOINT LeftHandThumbEnd
                      {
                        OFFSET 3.180793 -0.000004 0.000004
                        CHANNELS 3 Zrotation Yrotation Xrotation
                        End Site
                        {
                          OFFSET 0.0 1.0 0.0
                        }
                      }
                    }
                  }
                }
                JOINT LeftHandIndex1
                {
                  OFFSET 3.247555 -0.531998 2.296169
                  CHANNELS 3 Zrotation Yrotation Xrotation
                  JOINT LeftHandIndex2
                  {
                    OFFSET 6.364578 0.012060 0.178600
                    CHANNELS 3 Zrotation Yrotation Xrotation
                    JOINT LeftHandIndex3
                    {
                      OFFSET 3.662364 0.000000 0.000000
                      CHANNELS 3 Zrotation Yrotation Xrotation
                      JOINT LeftHandIndex4
                      {
                        OFFSET 2.329242 0.000004 0.000004
                        CHANNELS 3 Zrotation Yrotation Xrotation
                        JOINT LeftHandIndexEnd
                        {
                          OFFSET 2.759615 -0.180537 -0.113024
                          CHANNELS 3 Zrotation Yrotation Xrotation
                          End Site
                          {
                            OFFSET 0.0 1.0 0.0
                          }
                        }
                      }
                    }
                  }
                }
                JOINT LeftHandMiddle1
                {
                  OFFSET 3.163495 0.240981 1.000332
                  CHANNELS 3 Zrotation Yrotation Xrotation
                  JOINT LeftHandMiddle2
                  {
                    OFFSET 6.190780 -0.259278 -1.002548
                    CHANNELS 3 Zrotation Yrotation Xrotation
                    JOINT LeftHandMiddle3
                    {
                      OFFSET 4.356520 -0.000004 -0.000001
                      CHANNELS 3 Zrotation Yrotation Xrotation
                      JOINT LeftHandMiddle4
                      {
                        OFFSET 2.996877 -0.000008 0.000000
                        CHANNELS 3 Zrotation Yrotation Xrotation
                        JOINT LeftHandMiddleEnd
                        {
                          OFFSET 2.304287 -0.294569 -0.031741
                          CHANNELS 3 Zrotation Yrotation Xrotation
                          End Site
                          {
                            OFFSET 0.0 1.0 0.0
                          }
                        }
                      }
                    }
                  }
                }
                JOINT LeftHandRing1
                {
                  OFFSET 2.882643 -0.053652 -0.322543
                  CHANNELS 3 Zrotation Yrotation Xrotation
                  JOINT LeftHandRing2
                  {
                    OFFSET 5.854541 -0.486202 -1.373841
                    CHANNELS 3 Zrotation Yrotation Xrotation
                    JOINT LeftHandRing3
                    {
                      OFFSET 4.350578 0.000000 0.000003
                      CHANNELS 3 Zrotation Yrotation Xrotation
                      JOINT LeftHandRing4
                      {
                        OFFSET 2.651321 0.000007 0.000002
                        CHANNELS 3 Zrotation Yrotation Xrotation
                        JOINT LeftHandRingEnd
                        {
                          OFFSET 1.936105 0.077687 -0.000071
                          CHANNELS 3 Zrotation Yrotation Xrotation
                          End Site
                          {
                            OFFSET 0.0 1.0 0.0
                          }
                        }
                      }
                    }
                  }
                }
                JOINT LeftHandPinky1
                {
                  OFFSET 2.865500 -0.310005 -1.600378
                  CHANNELS 3 Zrotation Yrotation Xrotation
                  JOINT LeftHandPinky2
                  {
                    OFFSET 5.087849 -1.331141 -1.771230
                    CHANNELS 3 Zrotation Yrotation Xrotation
                    JOINT LeftHandPinky3
                    {
                      OFFSET 3.070974 0.000004 0.000000
                      CHANNELS 3 Zrotation Yrotation Xrotation
                      JOINT LeftHandPinky4
                      {
                        OFFSET 1.549672 0.000000 0.000001
                        CHANNELS 3 Zrotation Yrotation Xrotation
                        JOINT LeftHandPinkyEnd
                        {
                          OFFSET 1.944893 -0.157802 0.057219
                          CHANNELS 3 Zrotation Yrotation Xrotation
                          End Site
                          {
                            OFFSET 0.0 1.0 0.0
                          }
                        }
                      }
                    }
                  }
                }
              }
            }
          }
        }
        JOINT RightShoulder
        {
          OFFSET -1.380118 23.180309 5.214158
          CHANNELS 3 Zrotation Yrotation Xrotation
          JOINT RightArm
          {
            OFFSET -15.037196 0.000012 -5.545604
            CHANNELS 3 Zrotation Yrotation Xrotation
            JOINT RightForeArm
            {
              OFFSET -28.736639 0.000002 -0.002597
              CHANNELS 3 Zrotation Yrotation Xrotation
              JOINT RightHand
              {
                OFFSET -27.133619 -0.000000 0.002613
                CHANNELS 3 Zrotation Yrotation Xrotation
                JOINT RightHandThumb1
                {
                  OFFSET -2.274032 -1.383988 3.163127
                  CHANNELS 3 Zrotation Yrotation Xrotation
                  JOINT RightHandThumb2
                  {
                    OFFSET -4.011429 -1.827466 1.640914
                    CHANNELS 3 Zrotation Yrotation Xrotation
                    JOINT RightHandThumb3
                    {
                      OFFSET -2.794935 -0.000004 -0.000003
                      CHANNELS 3 Zrotation Yrotation Xrotation
                      JOINT RightHandThumbEnd
                      {
                        OFFSET -3.183852 0.000004 0.000001
                        CHANNELS 3 Zrotation Yrotation Xrotation
                        End Site
                        {
                          OFFSET 0.0 1.0 0.0
                        }
                      }
                    }
                  }
                }
                JOINT RightHandIndex1
                {
                  OFFSET -3.253266 -0.520057 2.282866
                  CHANNELS 3 Zrotation Yrotation Xrotation
                  JOINT RightHandIndex2
                  {
                    OFFSET -6.341917 0.012471 0.178266
                    CHANNELS 3 Zrotation Yrotation Xrotation
                    JOINT RightHandIndex3
                    {
                      OFFSET -3.654871 -0.000008 -0.000000
                      CHANNELS 3 Zrotation Yrotation Xrotation
                      JOINT RightHandIndex4
                      {
                        OFFSET -2.327586 0.000000 0.000001
                        CHANNELS 3 Zrotation Yrotation Xrotation
                        JOINT RightHandIndexEnd
                        {
                          OFFSET -2.761790 -0.180656 -0.113078
                          CHANNELS 3 Zrotation Yrotation Xrotation
                          End Site
                          {
                            OFFSET 0.0 1.0 0.0
                          }
                        }
                      }
                    }
                  }
                }
                JOINT RightHandMiddle1
                {
                  OFFSET -3.168106 0.246593 1.001030
                  CHANNELS 3 Zrotation Yrotation Xrotation
                  JOINT RightHandMiddle2
                  {
                    OFFSET -6.180828 -0.258836 -1.000895
                    CHANNELS 3 Zrotation Yrotation Xrotation
                    JOINT RightHandMiddle3
                    {
                      OFFSET -4.348901 0.000000 -0.000000
                      CHANNELS 3 Zrotation Yrotation Xrotation
                      JOINT RightHandMiddle4
                      {
                        OFFSET -3.000240 -0.000004 -0.000002
                        CHANNELS 3 Zrotation Yrotation Xrotation
                        JOINT RightHandMiddleEnd
                        {
                          OFFSET -2.302520 -0.294370 -0.031706
                          CHANNELS 3 Zrotation Yrotation Xrotation
                          End Site
                          {
                            OFFSET 0.0 1.0 0.0
                          }
                        }
                      }
                    }
                  }
                }
                JOINT RightHandRing1
                {
                  OFFSET -2.885690 -0.067952 -0.308858
                  CHANNELS 3 Zrotation Yrotation Xrotation
                  JOINT RightHandRing2
                  {
                    OFFSET -5.854198 -0.486130 -1.373731
                    CHANNELS 3 Zrotation Yrotation Xrotation
                    JOINT RightHandRing3
                    {
                      OFFSET -4.338810 -0.000004 -0.000000
                      CHANNELS 3 Zrotation Yrotation Xrotation
                      JOINT RightHandRing4
                      {
                        OFFSET -2.654903 -0.000004 0.000004
                        CHANNELS 3 Zrotation Yrotation Xrotation
                        JOINT RightHandRingEnd
                        {
                          OFFSET -1.933568 0.077527 -0.000052
                          CHANNELS 3 Zrotation Yrotation Xrotation
                          End Site
                          {
                            OFFSET 0.0 1.0 0.0
                          }
                        }
                      }
                    }
                  }
                }
                JOINT RightHandPinky1
                {
                  OFFSET -2.866425 -0.342796 -1.584145
                  CHANNELS 3 Zrotation Yrotation Xrotation
                  JOINT RightHandPinky2
                  {
                    OFFSET -5.091371 -1.332055 -1.772385
                    CHANNELS 3 Zrotation Yrotation Xrotation
                    JOINT RightHandPinky3
                    {
                      OFFSET -3.062664 -0.000004 0.000001
                      CHANNELS 3 Zrotation Yrotation Xrotation
                      JOINT RightHandPinky4
                      {
                        OFFSET -1.546529 0.000004 -0.000002
                        CHANNELS 3 Zrotation Yrotation Xrotation
                        JOINT RightHandPinkyEnd
                        {
                          OFFSET -1.945119 -0.157718 0.057211
                          CHANNELS 3 Zrotation Yrotation Xrotation
                          End Site
                          {
                            OFFSET 0.0 1.0 0.0
                          }
                        }
                      }
                    }
                  }
                }
              }
            }
          }
        }
      }
    }
  }
  JOINT LeftLeg
  {
    OFFSET 10.043214 -8.434526 2.595655
    CHANNELS 3 Zrotation Yrotation Xrotation
    JOINT LeftShin
    {
      OFFSET -0.000001 -43.221752 -0.802913
      CHANNELS 3 Zrotation Yrotation Xrotation
      JOINT LeftFoot
      {
        OFFSET 0.000001 -42.155094 -3.481523
        CHANNELS 3 Zrotation Yrotation Xrotation
        JOINT LeftToeBase
        {
          OFFSET 0.000000 -5.059472 13.231529
          CHANNELS 3 Zrotation Yrotation Xrotation
          JOINT LeftToeEnd
          {
            OFFSET -0.009607 -1.647619 6.513017
            CHANNELS 3 Zrotation Yrotation Xrotation
            End Site
            {
              OFFSET 0.0 1.0 0.0
            }
          }
        }
      }
    }
  }
  JOINT RightLeg
  {
    OFFSET -10.047278 -8.295260 2.620317
    CHANNELS 3 Zrotation Yrotation Xrotation
    JOINT RightShin
    {
      OFFSET 0.000001 -43.362206 -0.805556
      CHANNELS 3 Zrotation Yrotation Xrotation
      JOINT RightFoot
      {
        OFFSET 0.000002 -42.117393 -3.478398
        CHANNELS 3 Zrotation Yrotation Xrotation
        JOINT RightToeBase
        {
          OFFSET -0.000000 -5.079609 13.284196
          CHANNELS 3 Zrotation Yrotation Xrotation
          JOINT RightToeEnd
          {
            OFFSET 0.009532 -1.634378 6.460591
            CHANNELS 3 Zrotation Yrotation Xrotation
            End Site
            {
              OFFSET 0.0 1.0 0.0
            }
          }
        }
      }
    }
  }
}
MOTION
Frames: 4
Frame Time: 0.033333
5.119839 101.602890 -0.255074 -178.109393 -61.150078 -177.570738 -6.748085 -2.252566 10.592142 1.656863 5.794084 -7.387369 -3.744876 0.080178 7.382496 6.603206 -2.161416 -0.295031 -2.656763 2.789986 -14.392340 6.512912 26.436279 0.232806 0.000441 -0.000149 -0.000952 -1.312439 -0.186922 -2.888889 -0.881180 -5.551709 4.194376 -1.145245 -3.786979 4.203878 4.174127 -8.900678 14.363072 -58.912568 -29.040698 -31.808795 174.093995 -58.442992 -164.999596 42.414805 -12.001697 -11.087802 0.193948 0.671707 13.563997 -6.930056 -11.051812 -0.581549 -2.335007 -3.560873 -12.484253 -0.000651 -0.000132 0.000292 3.605522 -4.376972 1.594426 -11.975350 1.738742 6.965762 -7.802778 0.903852 -0.740662 1.305568 -3.690935 4.598075 -0.000589 0.000591 -0.000698 4.102559 -4.188884 1.494628 -14.059188 7.860662 4.539889 -8.631420 1.610274 -0.095506 5.572877 -1.246490 4.702099 0.000749 -0.000503 0.000593 7.800174 -2.403573 -14.495934 -16.610825 11.456265 19.423437 -10.803273 1.710080 0.409903 -13.150690 0.853704 -3.449596 0.000635 -0.000146 -0.000333 9.724995 -0.671057 -12.125850 -20.037984 11.755018 15.278232 -11.937374 2.112909 0.749586 -3.408167 2.987659 -2.143585 -0.000624 0.000324 0.000209 -12.382562 15.719337 8.783251 59.697146 56.971422 -26.290864 -167.880244 54.747827 -156.541193 -33.164871 7.664519 -3.797232 10.867828 -0.051461 14.777689 5.737972 12.731441 -3.777696 1.236259 2.608070 -3.117732 -0.000154 0.000787 -0.000204 6.029536 6.960934 1.686399 5.660352 -3.200026 8.011304 -1.694262 -0.969389 -0.438834 -4.152528 2.525573 -2.576316 0.000083 -0.000168 0.000166 4.907175 7.523613 0.604458 6.324052 -7.778324 4.810277 2.597815 -1.650412 -0.558252 -7.542727 1.524317 3.907078 0.000697 0.000437 -0.000271 0.712497 7.158860 -15.887289 8.447643 -9.334150 20.206165 5.601313 -1.374226 -0.286645 12.043903 0.546395 -5.413694 0.001016 0.001417 -0.000992 -3.128848 6.034027 -13.259285 14.774343 -9.232019 15.582559 8.207406 -1.488742 0.207197 2.521882 -2.486864 -2.493968 -0.003543 0.001392 -0.000525 1.445106 -7.039909 -1.312458 4.222416 -7.980150 18.168698 -2.236594 -1.655735 -11.816065 4.340272 -3.194152 -7.663317 0.000694 -0.000788 1.000074 3.864730 -10.943449 -17.815207 3.103392 -3.915135 57.449166 1.428996 -7.520355 -11.360515 -1.972341 1.569805 -4.788016 -0.001503 0.000383 1.001505
5.132654 101.605209 -0.311909 -177.861173 -61.211742 -177.840479 -6.743359 -2.285877 10.560515 1.647823 5.832165 -7.333236 -3.798642 0.047258 7.365077 6.718678 -2.175012 -0.344162 -2.686816 2.836846 -14.590813 6.504253 26.412953 0.233452 0.000484 -0.000145 -0.000953 -1.324150 -0.176932 -2.841651 -0.882800 -5.569186 4.205530 -1.146572 -3.804812 4.215904 4.252017 -8.931610 14.255602 -59.058036 -29.115736 -31.498230 174.277428 -58.276333 -165.259819 42.240081 -12.228658 -10.842465 0.186596 0.747151 13.631527 -6.925244 -11.013131 -0.647291 -2.312215 -3.406782 -12.380730 -0.000655 -0.000123 0.000306 3.597566 -4.449762 1.561542 -12.099388 1.787425 6.956954 -7.757325 0.891875 -0.727590 1.244674 -3.686787 4.635564 -0.000603 0.000597 -0.000711 4.135998 -4.267169 1.488586 -14.140685 7.866497 4.504266 -8.603087 1.615144 -0.111782 5.561423 -1.240447 4.676895 0.000784 -0.000502 0.000619 7.870188 -2.471336 -14.528959 -16.608584 11.431190 19.455148 -10.773031 1.722970 0.418686 -13.255458 0.828887 -3.534760 0.000641 -0.000146 -0.000374 9.783634 -0.729187 -12.138240 -20.017079 11.711809 15.317527 -11.930301 2.138174 0.750399 -3.499520 2.986596 -2.189229 -0.000656 0.000366 0.000178 -12.210197 15.562497 8.875809 59.911232 56.844705 -26.324319 -167.737930 54.765271 -156.478489 -33.277811 7.600379 -3.969898 10.754515 -0.206527 14.798111 5.598120 12.698303 -3.918078 1.247916 2.555336 -3.087115 -0.000145 0.000770 -0.000211 5.858813 6.998272 1.625506 5.690543 -3.175105 7.976963 -1.665899 -0.925131 -0.462016 -4.104351 2.555528 -2.389511 0.000110 -0.000213 0.000168 4.829079 7.596796 0.605012 6.343329 -7.797868 4.777938 2.601379 -1.622307 -0.600579 -7.569970 1.531167 3.843670 0.000713 0.000437 -0.000285 0.647524 7.235895 -15.960188 8.429035 -9.288119 20.190650 5.602987 -1.356718 -0.304412 12.107789 0.569351 -5.502457 0.001018 0.001465 -0.000976 -3.141721 6.154069 -13.404367 14.746102 -9.215201 15.585879 8.223271 -1.489180 0.200026 2.557965 -2.503215 -2.592933 -0.003566 0.001429 -0.000548 1.478329 -7.032315 -1.243303 4.320483 -7.953103 18.181211 -2.150031 -1.591800 -11.943477 4.353923 -3.196010 -7.733613 0.000678 -0.000828 1.000099 4.000766 -10.649948 -17.705659 3.139520 -3.873000 57.352510 1.386158 -7.499024 -11.491838 -1.954824 1.569802 -4.819272 -0.001480 0.000408 1.001467
5.145478 101.616516 -0.368746 -177.663106 -61.256624 -177.927145 -6.751187 -2.303711 10.560419 1.651806 5.844240 -7.369501 -3.798662 0.038270 7.399168 6.770723 -2.170645 -0.308828 -2.713554 2.816988 -14.613591 6.423043 26.505422 0.097213 0.000500 -0.000142 -0.000962 -1.331853 -0.175939 -2.840861 -0.885030 -5.597415 4.176015 -1.149638 -3.832914 4.186093 4.291348 -8.898135 14.232874 -59.206542 -29.219002 -31.301174 174.516916 -57.972906 -165.518626 42.173438 -12.365705 -10.574365 0.108500 0.844966 13.717948 -6.929480 -11.004830 -0.685399 -2.295571 -3.383788 -12.360404 -0.000654 -0.000112 0.000316 3.553649 -4.425821 1.590587 -12.066051 1.791406 6.991128 -7.639391 0.916909 -0.717690 1.291687 -3.705553 4.686200 -0.000604 0.000590 -0.000726 4.123182 -4.238268 1.506659 -14.126614 7.864218 4.520852 -8.497344 1.636915 -0.094535 5.661693 -1.250822 4.704761 0.000804 -0.000499 0.000632 7.871440 -2.456287 -14.499522 -16.603462 11.436952 19.506726 -10.665274 1.738166 0.440400 -13.179628 0.820783 -3.531935 0.000644 -0.000140 -0.000391 9.803000 -0.718797 -12.112779 -20.054201 11.741065 15.360330 -11.832370 2.175481 0.755133 -3.398932 2.983814 -2.145254 -0.000678 0.000385 0.000177 -12.095292 15.409673 8.894465 60.030494 56.817760 -26.352281 -167.630423 54.548670 -156.314382 -33.328029 7.548849 -3.974678 10.713312 -0.260432 14.832833 5.561939 12.761903 -3.966706 1.258639 2.616773 -3.107268 -0.000144 0.000772 -0.000210 5.789359 7.026875 1.638435 5.602912 -3.169723 7.955840 -1.791211 -0.933636 -0.489513 -4.199426 2.562762 -2.296589 0.000129 -0.000230 0.000170 4.778482 7.660864 0.611803 6.275565 -7.830578 4.783289 2.445579 -1.631489 -0.625570 -7.728123 1.540199 3.871652 0.000732 0.000434 -0.000287 0.604769 7.292022 -15.997441 8.326856 -9.251936 20.196115 5.443751 -1.377464 -0.298382 11.977931 0.570280 -5.491743 0.001030 0.001451 -0.000974 -3.167784 6.235683 -13.486262 14.651167 -9.213709 15.595410 8.038641 -1.537616 0.222661 2.394171 -2.514064 -2.535511 -0.003548 0.001416 -0.000563 1.532447 -6.964135 -1.180661 4.385296 -7.943619 17.919328 -2.097961 -1.614649 -12.039512 4.332147 -3.158114 -7.825733 0.000670 -0.000848 1.000102 4.127959 -10.497500 -17.637651 3.161499 -3.789906 57.097564 1.291405 -7.510576 -11.504344 -1.930339 1.516399 -4.808106 -0.001468 0.000417 1.001483
5.158322 101.622345 -0.425589 -177.339992 -61.150961 -178.108212 -6.762099 -2.292937 10.545949 1.676139 5.847360 -7.394931 -3.769202 0.078427 7.461357 6.778382 -2.182251 -0.229298 -2.675218 2.795987 -14.556229 6.341203 26.517389 0.022330 0.000500 -0.000149 -0.000972 -1.332606 -0.177914 -2.865798 -0.883416 -5.638100 4.035921 -1.152272 -3.873956 4.046127 4.309222 -8.810144 14.206152 -59.297520 -29.319965 -31.160251 174.769059 -57.572103 -165.730433 42.430147 -12.513219 -10.531233 0.077210 0.920109 13.818177 -6.924083 -11.012072 -0.723686 -2.253044 -3.431637 -12.381621 -0.000659 -0.000094 0.000316 3.528282 -4.403851 1.680129 -11.938497 1.705492 7.025111 -7.534596 0.912041 -0.705777 1.347858 -3.747271 4.710499 -0.000591 0.000594 -0.000739 4.107837 -4.216945 1.531996 -14.015247 7.773556 4.561685 -8.395893 1.636172 -0.058433 5.750840 -1.273664 4.738579 0.000820 -0.000509 0.000648 7.853508 -2.464307 -14.486310 -16.528903 11.349614 19.575824 -10.539617 1.735430 0.474577 -13.078197 0.816602 -3.494442 0.000654 -0.000140 -0.000391 9.823621 -0.765237 -12.125191 -20.002668 11.717709 15.420260 -11.688988 2.203539 0.757888 -3.271184 2.964415 -2.054025 -0.000686 0.000385 0.000182 -11.946598 15.350563 8.835553 59.853376 56.740175 -26.584262 -167.574567 54.277609 -156.152398 -33.253625 7.432938 -4.129970 10.622168 -0.167606 14.711939 5.539596 12.845889 -3.972469 1.248706 2.687915 -3.149436 -0.000157 0.000780 -0.000202 5.721581 7.072563 1.643054 5.458771 -3.167825 7.934906 -1.921582 -0.950014 -0.509038 -4.277772 2.556074 -2.297545 0.000140 -0.000224 0.000181 4.754430 7.694377 0.621921 6.150323 -7.796813 4.805963 2.270039 -1.613858 -0.655494 -7.862412 1.547024 3.925379 0.000757 0.000433 -0.000288 0.615326 7.343283 -16.001416 8.192503 -9.196301 20.195282 5.229884 -1.376119 -0.301664 11.798622 0.574710 -5.463005 0.001041 0.001421 -0.000982 -3.121222 6.309932 -13.540124 14.537143 -9.166448 15.584690 7.756600 -1.557897 0.233213 2.172293 -2.510030 -2.423146 -0.003523 0.001399 -0.000577 1.578740 -7.006220 -1.177137 4.462386 -7.981275 17.822860 -2.115738 -1.703448 -12.218255 4.271705 -3.054341 -7.826256 0.000670 -0.000853 1.000103 4.285579 -10.488069 -17.683254 3.095073 -3.701868 57.014975 1.207667 -8.120292 -11.499693 -1.861024 1.401254 -4.785810 -0.001465 0.000423 1.001504
